<svg xmlns="http://www.w3.org/2000/svg" xmlns:xlink="http://www.w3.org/1999/xlink" viewBox="0 0 344.74 528.94"><defs><clipPath id="a" transform="translate(-250.5 -191.83)"><rect x="401.68" y="278.83" width="85.99" height="85.99" fill="none"/></clipPath><clipPath id="b" transform="translate(-250.5 -191.83)"><rect x="425.83" y="299.64" width="61.84" height="65.16" fill="none"/></clipPath></defs><title>404</title><path d="M584.55,610.33c12.7,29,10.23,86.9-8.74,87.11-17,.19-46.6-6.53-57-69.7-2.51-15.24,55.95-39.71,65.72-17.41" transform="translate(-250.5 -191.83)" fill="#ffa39e" fill-rule="evenodd"/><path d="M491.64,456.18c33.18,17,55.18,29.94,65.31,63.1s38.29,107.66,38.29,107.66c-33.1-5.79-59.9,1.36-79.08,20.55,0,0-10.82-75.62-16.52-107.14s-38-99.52-8-84.17" transform="translate(-250.5 -191.83)" fill="#49b265" fill-rule="evenodd"/><path d="M260.27,646.2a544.26,544.26,0,0,0-6.91,70c19,7,46.05,5.36,59-1.13l6.53-65.53Z" transform="translate(-250.5 -191.83)" fill="#ffb7a6" fill-rule="evenodd"/><path d="M295.6,705.08c-1.14,5.75-2.37,10.85-3.52,15.14,8-.83,15.2-2.62,20.23-5.15l6.54-65.53-19-1.09c.19,22.45-.49,37.85-4.21,56.63" transform="translate(-250.5 -191.83)" fill="#ff9495"/><path d="M324.46,461.26c-29.38,14.58-48.1,26.52-56.12,77.62-10.12,64.47-14.85,97.33-17.84,124.74,9.16,6.1,60.79,8.74,71.71,3.19,0,0,3.9-56.33,8.38-96.75,4.68-42.21,15.61-119.59-6.13-108.8" transform="translate(-250.5 -191.83)" fill="#49b265" fill-rule="evenodd"/><path d="M321.81,505.11c-18.64,14.33-21.05,39.54-23.36,67.79-.81,10,.15,5.11,1.14,59.82.27,14.73.39,26.46,0,37.11,10.12-.15,18.82-1.09,22.61-3,0,0,3.9-56.33,8.38-96.75,2.29-20.66,6.08-49.76,6.8-72.81a47.78,47.78,0,0,0-15.58,7.86" transform="translate(-250.5 -191.83)" fill="#159957"/><path d="M467.38,449.49c-13.05-4.52-27.67-9.86-30.84-15.2-8.59-14.44-8.15-64.52-8.15-64.52l-50.62,1.59s4.61,42.77-4,62.59c-3.74,8.57-19.34,15.71-32.35,21.29,27.09,55.54,106.24,54.43,126-5.75" transform="translate(-250.5 -191.83)" fill="#ffb7a6" fill-rule="evenodd"/><path d="M429.92,404.88c-1.69-17.4-1.53-35.11-1.53-35.11l-50.62,1.59a261.16,261.16,0,0,1,1.14,31.06q25.5,30,51,2.46" transform="translate(-250.5 -191.83)" fill="#ff9495"/><path d="M455.27,445.11c-12.11,53-89.17,51.88-99.85,3.68-4.59,2.34-9.47,4.49-14,6.45,27.09,55.54,106.24,54.43,126-5.75-4-1.39-8.18-2.86-12.11-4.38" transform="translate(-250.5 -191.83)" fill="#ff9495"/><path d="M460.92,445.35c-17.73,54-88.8,55-113.1,5.14-15.3,6.59-32.7,12.91-39.74,26.37-12.42,23.72-7.73,83.45-2.65,145.64s3.91,97.11,3.91,97.11l223.12-1.43s-4.56-43.93-6-101.24,13.09-113.32-6.65-140.13c-12.44-16.91-38.91-24.52-58.91-31.46" transform="translate(-250.5 -191.83)" fill="#49b265" fill-rule="evenodd"/><path d="M451.6,211.37s18.49,3.89,34.17,28.95c18.71,29.91,14.27,69.74.48,57.74,6.91,30-7.57,31.88-9.86,19.17,2.17,39.85-17.51,38.68-17.33,26.72-27.06,64-83.69,63.32-108.54.19,1.68,8.1-11.8,11.41-17.6-17.54,1.1,9.15-17.67,9.53-11-22.34-4.23,11.24-21.28,5.26-4.12-31.23-44.05.38,40.57-109.93,108.3-72.54-11.08-10.43,8-15.4,18.3,8.47-3.64-11.54,7.38-8.49,7.21,2.41" transform="translate(-250.5 -191.83)" fill="#424242" fill-rule="evenodd"/><path d="M464,323.71c4.88-2.72,18.7-4.8,21.68,8,3.67,15.66-14.83,28.71-26.12,22.21-.2-10.52,4.44-30.16,4.44-30.16" transform="translate(-250.5 -191.83)" fill="#ff9495" fill-rule="evenodd"/><path d="M481.8,330.63c-9.9-.85-15.62,4.83-18.47,15" transform="translate(-250.5 -191.83)" fill="#ffa39e" fill-rule="evenodd"/><path d="M481.8,330.63c-9.9-.85-15.62,4.83-18.47,15" transform="translate(-250.5 -191.83)" fill="none" stroke="#000" stroke-linecap="round" stroke-linejoin="round" stroke-width="1.08"/><path d="M346.84,323.71c-4.89-2.72-18.7-4.8-21.68,8-3.67,15.66,14.83,28.71,26.12,22.21.2-10.52-4.44-30.16-4.44-30.16" transform="translate(-250.5 -191.83)" fill="#ff9495" fill-rule="evenodd"/><path d="M329.07,330.63c9.9-.85,15.62,4.83,18.47,15" transform="translate(-250.5 -191.83)" fill="#ffa39e" fill-rule="evenodd"/><path d="M329.07,330.63c9.9-.85,15.62,4.83,18.47,15" transform="translate(-250.5 -191.83)" fill="none" stroke="#000" stroke-linecap="round" stroke-linejoin="round" stroke-width="1.08"/><path d="M473.93,267.83c6,15.35-7.89,81.69-15.85,101.94s-32.51,35.71-53.72,35.75S356.71,389,350.65,369.58,337,271.72,342.78,262.91c23.18-35.05,118-28.61,131.15,4.92" transform="translate(-250.5 -191.83)" fill="#ffb7a6" fill-rule="evenodd"/><path d="M473.93,267.83c-13.17-33.53-108-40-131.15-4.92-3.06,4.63-2.4,28.51-.21,52.94,2.89-14.17,15.49-21.09,20.19-35.65.23,12.89,17.12,2.94,33.14-9.72-7.95,11.76,9.52,6,16.7-1,12.51,12.91,39.21,42.12,34.72,15.53,10.82,20.86,20,17.15,24,31.73,3.69-20.95,5.64-41.23,2.64-48.88" transform="translate(-250.5 -191.83)" fill="#ff9495"/><path d="M393.26,378.63c8.62-2,13.2-.15,14.73,7a25.1,25.1,0,0,0-14.73-7" transform="translate(-250.5 -191.83)" fill-rule="evenodd"/><path d="M398.57,326.83s-5.95,19.71-7.61,26c-1.35,5.06,5,10.61,12.7,9.59" transform="translate(-250.5 -191.83)" fill="none" stroke="#000" stroke-linecap="round" stroke-linejoin="round" stroke-width="1.08"/><path d="M439.32,315.34a5.53,5.53,0,1,0,5.53,5.52,5.53,5.53,0,0,0-5.53-5.52" transform="translate(-250.5 -191.83)" fill-rule="evenodd"/><path d="M374.19,315.34a5.53,5.53,0,1,1-5.53,5.52,5.52,5.52,0,0,1,5.53-5.52" transform="translate(-250.5 -191.83)" fill-rule="evenodd"/><path d="M433.23,295.08c8.29-.77,13.11,2.73,15.4,8.33,1.74,4.24,7.88,2.15,5.61-3-3.75-8.57-11-13.57-21.95-12-5,.71-3.85,7.18.94,6.74" transform="translate(-250.5 -191.83)" fill-rule="evenodd"/><path d="M380.28,295.08c-8.3-.77-13.12,2.73-15.41,8.33-1.73,4.24-7.88,2.15-5.61-3,3.75-8.57,11-13.57,21.95-12,5,.71,3.85,7.18-.93,6.74" transform="translate(-250.5 -191.83)" fill-rule="evenodd"/><path d="M470.24,322.19c-3.06-26.57-10.91-17.66-22.92-46.69,4.49,33.36-22.21-3.29-34.72-19.49-7.18,8.82-24.65,16.05-16.7,1.3-16,15.87-32.91,28.36-33.14,12.19C357.49,290,343.29,298.39,343,321.12c0,0-17-60.26-3.36-79s122-18.33,132.74,3.38-2.14,76.68-2.14,76.68" transform="translate(-250.5 -191.83)" fill="#424242" fill-rule="evenodd"/><g opacity="0.5"><g clip-path="url(#a)"><path d="M485.06,307.12A43,43,0,1,1,430,281.43a43,43,0,0,1,55.09,25.69" transform="translate(-250.5 -191.83)" fill="#c7e9ef"/></g></g><g opacity="0.5"><g clip-path="url(#b)"><path d="M481.48,299.64c-27.08,11.43-45.28,32.06-55.65,60.78a43,43,0,0,0,55.65-60.78" transform="translate(-250.5 -191.83)" fill="#fff"/></g></g><rect x="461.02" y="373.64" width="9.99" height="13.6" transform="translate(-352.5 -9.53) rotate(-20)" fill="#9b9abc"/><rect x="457.2" y="365.63" width="9.99" height="8.68" transform="translate(-349.15 -11.46) rotate(-20)" fill="#8a89b1"/><path d="M490.85,448.68h0a7.34,7.34,0,0,1-9.42-4.39l-19.22-52.8a2.28,2.28,0,0,1,1.37-2.93l9.51-3.46a2.28,2.28,0,0,1,2.93,1.37l19.22,52.8a7.34,7.34,0,0,1-4.39,9.41" transform="translate(-250.5 -191.83)" fill="#57568f"/><g opacity="0.5"><g clip-path="url(#a)"><path d="M444.67,278.83v4.32a38.71,38.71,0,1,1-13.22,2.34,38.78,38.78,0,0,1,13.22-2.34v-4.32m0,0a43,43,0,1,0,40.39,28.29,42.81,42.81,0,0,0-40.39-28.29" transform="translate(-250.5 -191.83)" fill="#c7e9ef"/></g></g><path d="M427.35,274.22a50.65,50.65,0,1,0,64.92,30.27,50.65,50.65,0,0,0-64.92-30.27m32,88a43,43,0,1,1,25.69-55.09,43,43,0,0,1-25.69,55.09" transform="translate(-250.5 -191.83)" fill="#57568f"/><path d="M461.4,424.14s-11.19-2.1-13.82-.87-4.73,7-5.31,9.39,7.5,23.76,9.23,29.8,21.61-2.8,13.92-22.23a83.29,83.29,0,0,1-4-16.09" transform="translate(-250.5 -191.83)" fill="#ff9495" fill-rule="evenodd"/><path d="M502.71,396.82c-1.76-2.55-23.7-14.11-29.69-12-6.47,2.25-19.59,24.08-19.87,28.33s5.18,9.63,5.18,9.63l49.23-12.55c.6-3.79-3.18-11-4.85-13.38" transform="translate(-250.5 -191.83)" fill="#ff9495" fill-rule="evenodd"/><path d="M504.21,400.44c-4.18-.29-46.46,10.39-49.81,19.39s3.44,16.64,3.44,16.64c-3.25,5-.55,11.22,5.38,19.39-2.56,5,4.56,27.65,9.85,29.23s11.86-.29,11.86-.29-1.09,14.64,4.36,20.32S506.46,511,506.46,511,519,636.62,522.88,662.68s41.16,38.4,53.18,34.2,18.35-45.51,9.42-73.88S539.64,512,538,503.16s-4.64-49.63-6.09-56.35c-1.3-6-3.25-13.09-4.44-18.33-3.32-14.66-7.86-19.38-15.23-18.31,0,0-3.42-9.4-8-9.73" transform="translate(-250.5 -191.83)" fill="#ffb7a6" fill-rule="evenodd"/><path d="M457.76,436.64c4.72-6.28,27.15-12.39,47.2-20.09m-41.7,39.25c3.88-6.29,29.17-13.16,47.81-21.09m-2.38,30-23.23,3.48a13.4,13.4,0,0,1-3.36,13.22m-7.41-15.08c2.72,2.67,7.69,2.37,10.92,1.83m-.12,16.46s13-2.21,18.14-3.65c4.14-1.15,3.85-13.58-11-13.82" transform="translate(-250.5 -191.83)" fill="none" stroke="#000" stroke-linecap="round" stroke-linejoin="round" stroke-width="1.08"/></svg>